# xmcd CD database file
#
# Track frame offsets:
#	182
#	47850
#	90892
#	120202
#	163237
#	208847
#	248522
#	294502
#
# Disc length: 4771 seconds
#
# Revision: 0
# Processed by: cddbd v1.5.2PL0 Copyright (c) Steve Scherf et al.
# Submitted via: CDex 1.51
#
DISCID=6412a108
DTITLE=Steve Nelson - Full Nelson
DYEAR=1989
DGENRE=Jazz
TTITLE0=The Hearness Of You
TTITLE1=Do Nothing Until You Here From Me
TTITLE2=Beutiful Love
TTITLE3=Star Crossed Lovers
TTITLE4=Come Rain Or Come Shine
TTITLE5=Blues For George "A"
TTITLE6=There Are Many Angels In Florence
TTITLE7=Chelsea Bridge
EXTD=YEAR: 1989
EXTT0=
EXTT1=
EXTT2=
EXTT3=
EXTT4=
EXTT5=
EXTT6=
EXTT7=
PLAYORDER=
